<svg height="290.809753" viewBox="0 0 67.089 56.693" width="343.867422" xmlns="http://www.w3.org/2000/svg" xmlns:xlink="http://www.w3.org/1999/xlink"><clipPath id="a" transform="translate(0 .001)"><path d="m0 0h67.089v56.693h-67.089z"/></clipPath><g clip-path="url(#a)"><path d="m40.628 24.234c.877.186 2.02.824 2.152 1.78l-10.494.133c-5.313 1.2-5.041 7.769-7.186 10.584a4.5 4.5 0 0 1 -1.889 1.569c-.346.04-.183-.325-.183-.325 1.2-3.374 2.4-7.648 3.637-10.043a7.518 7.518 0 0 1 6.258-3.745z" fill="#035a84" transform="translate(0 .001)"/><path d="m50.086 28.352a5.31 5.31 0 0 1 .478 2.71h-.134c-.53-1.169-1.853-2.885-2.849-3.022s-3.718-.087-5.6-.113c0 0 1.026-1.349 1.329-1.627 2.5.08 5.5-.5 6.779 2.052" fill="#035a84" transform="translate(0 .001)"/><path d="m49.873 31.407c.106.213-.138.324-.245.35-3.294.16-7.026.636-8.8 4.784 0 0-1.992 6.175-2.911 8.914a7.8 7.8 0 0 1 -3.917 4.714c-.179.086-.387-.088-.335-.18a10.118 10.118 0 0 0 1.263-2.138c.488-1.185 4.136-12.353 4.136-12.353 1.513-3.665 5.142-5.483 9.022-5.276a2.417 2.417 0 0 1 1.79 1.185" fill="#035a84" transform="translate(0 .001)"/><path d="m36.186 36.618s-.844 1.633-1.031 2.164c-1.328 3.48-1.948 6.1-3.194 9.609a7.162 7.162 0 0 1 -4.122 4.458c-.239 0-.386-.052-.335-.258a26.4 26.4 0 0 0 2.525-6 67.333 67.333 0 0 1 2.6-7.6c.747-1.649 2.344-2.6 3.555-2.37" fill="#035a84" transform="translate(0 .001)"/><path d="m30.875 37.381s-.885 1.734-1.082 2.3c-1.406 3.7-2.078 6.5-3.4 10.232a7.52 7.52 0 0 1 -4.264 4.7c-.243 0-.392-.061-.336-.28a29.123 29.123 0 0 0 2.662-6.382 74.639 74.639 0 0 1 2.766-8.091c.787-1.753 2.427-2.749 3.655-2.483" fill="#035a84" transform="translate(0 .001)"/><path d="m24.867 40.532-1.419.96.5 1.637-1.35-1.05-1.403.981.583-1.609-1.369-1.032 1.712.056.558-1.619.476 1.646z" fill="#987d50"/><path d="m23.42 45.054-1.419.96.5 1.637-1.35-1.05-1.404.981.583-1.61-1.368-1.031 1.712.055.558-1.618.476 1.645z" fill="#987d50"/><path d="m21.883 49.484-1.419.96.5 1.637-1.35-1.05-1.404.981.583-1.61-1.368-1.031 1.712.056.557-1.62.477 1.647z" fill="#987d50"/><path d="m20.436 54.096-1.419.96.5 1.637-1.35-1.05-1.404.981.584-1.61-1.369-1.031 1.712.055.558-1.618.476 1.645z" fill="#987d50"/><g fill="#035a84"><path d="m40.622 28.389h-4.1a2.729 2.729 0 0 0 -1.721.851 1.647 1.647 0 0 0 -.436 1.025s0 .053.142 0a1.475 1.475 0 0 1 .763-.243h3.51a2.262 2.262 0 0 0 1.338-.574c.556-.537.574-.694.574-.694s.156-.365-.07-.365" transform="translate(0 .001)"/><path d="m27.653.794c0-.055.031-.354-.079-.362h-1.282c-.488 0-.5.118-.645.551-.024.079-.032.181-.134.181-.047 0-.079-.055-.079-.095l.087-.763c.008-.094 0-.306.142-.306.613 0 1.219.031 2.234.031 1.424 0 2.148-.031 2.303-.031.181 0 .22.047.228.228l.04.629c.007.078.015.173-.087.173-.291 0 .133-.6-.669-.6h-1.123c-.354 0-.314-.031-.314.386v4.013c0 .662.636.4.636.646 0 .023.009.094-.07.094-.189 0-.409-.032-.637-.032a10.411 10.411 0 0 0 -1.078.032c-.071 0-.1-.023-.1-.1 0-.189.622-.109.622-.583z" transform="translate(0 .001)"/><path d="m31.728.676c-.008-.576-.684-.417-.684-.59 0-.071.062-.087.126-.087.29 0 .574.032.865.032.244 0 .487-.032.731-.032.134 0 .15.048.15.079 0 .158-.566.008-.566.6v1.7c0 .111 0 .142.117.142h2.88c.078 0 .062-.2.062-.229v-1.615c0-.543-.589-.409-.589-.59 0-.047.015-.087.134-.087.259 0 .668.032.818.032.29 0 .409-.032.566-.032.2 0 .22.079.22.126 0 .142-.527.008-.527.551v4.169c0 .574.716.433.716.629 0 .024-.032.095-.087.095-.212 0-.456-.031-.739-.031-.5 0-.723.031-.873.031-.071 0-.189.024-.189-.1 0-.189.55-.079.55-.575v-1.889c0-.126.032-.2-.062-.2h-2.9c-.094 0-.094.047-.094.133v1.962c0 .535.747.362.747.606 0 .039-.055.063-.126.063-.1 0-.676-.031-1.093-.031a4.2 4.2 0 0 0 -.677.031c-.063 0-.087-.04-.087-.118 0-.228.614.032.614-.747z" transform="translate(0 .001)"/><path d="m38.633 2.289c0 .268-.016.268.3.268h.849c.818 0 .606-.63.8-.63.063 0 .087.087.087.149 0 .276-.016.543-.016.8 0 .205.016.409.016.621 0 .071-.032.1-.087.1-.244 0 .023-.692-.637-.692h-1.171c-.165 0-.141.134-.141.251v1.444c0 .464-.063.653.6.653 1.817 0 2.085-.811 2.187-.811.055 0 .064.079.064.095a1.246 1.246 0 0 1 -.395.763c-.251.283-.424.268-.77.268-.6 0-1.2-.048-1.794-.032-.315.008-.645.032-.96.032-.071 0-.118-.016-.118-.079.016-.095.095-.079.346-.205.205-.094.22-.314.22-.684v-3.586c0-.353 0-.731-.424-.794-.065-.02-.238-.031-.238-.126 0-.063.047-.094.275-.094 1.487 0 1.9.031 2.226.031.158 0 .881-.031 1.126-.031.063 0 .078.079.078.173 0 .873-.11.936-.158.936-.188 0-.062-.377-.188-.559-.2-.267-1.023-.22-1.338-.22-.755 0-.739-.031-.739.5z" transform="translate(0 .001)"/><path d="m2.832 8.4a3.991 3.991 0 0 1 2.116.606c.063 0 .11-.079.189-.079s.087.126.11.637c.016.417.087.677-.047.677-.094 0-.149-.205-.181-.26a2.226 2.226 0 0 0 -2.061-1.352 2.183 2.183 0 0 0 -2.274 2.486 2.471 2.471 0 0 0 2.3 2.738 2.324 2.324 0 0 0 2.122-1.153.132.132 0 0 1 .11-.1.08.08 0 0 1 .07.087l-.18.787c-.009.031-.567.621-2.337.621a2.634 2.634 0 0 1 -2.769-2.736 2.84 2.84 0 0 1 2.832-2.959" transform="translate(0 .001)"/><path d="m9.817 12.162c-.079-.181-.126-.3-.346-.3h-1.731c-.149 0-.291 0-.37.165l-.5 1.1a.816.816 0 0 0 -.055.275c0 .55.558.314.558.519 0 .141-.11.118-.212.118-.22 0-.441-.032-.661-.032s-.425.032-.629.032c-.047 0-.071-.039-.071-.087 0-.165.37-.031.574-.48l1.88-4.011c.465-.992.488-1.117.59-1.117s.142.227.166.29l1.636 4.052a4.988 4.988 0 0 0 .393.9c.237.363.692.189.692.386 0 .071-.055.071-.11.071-.322 0-.644-.032-.967-.032-.212 0-.425.032-.638.032-.046 0-.172 0-.172-.079 0-.189.471-.11.471-.409a3.312 3.312 0 0 0 -.243-.747zm-2.124-.787c-.055.11 0 .141.1.141h1.56c.173 0 .165-.055.126-.157l-.771-1.895c-.039-.1-.079-.1-.126 0z" transform="translate(0 .001)"/><path d="m16.336 13.184c.567.864.952.574.952.763 0 .094-.44.094-.511.094-.574 0-.881-.4-1.18-.85l-.873-1.377c-.283-.44-.165-.416-1.046-.416-.252 0-.205.141-.205.22v1.66c0 .677.818.432.818.7 0 .078-.071.062-.134.062s-.251-.032-.9-.032c-.3 0-.6.032-.9.032a.081.081 0 0 1 -.079-.086c0-.2.574-.086.574-.685v-4c0-.755-.676-.433-.676-.7 0-.048.063-.1.157-.1a4.421 4.421 0 0 0 .5.032c.456 0 .9-.032 1.314-.032.126 0 1.864-.157 1.864 1.361a1.523 1.523 0 0 1 -.991 1.361zm-2.863-2.164c0 .15.488.11.858.11a1.026 1.026 0 0 0 1.093-1.117c0-.959-.732-1.282-1.5-1.282-.284 0-.449-.016-.449.291z" transform="translate(0 .001)"/><path d="m19.421 9.266c0-.055.031-.354-.079-.362h-1.282c-.488 0-.5.118-.645.551-.024.079-.032.181-.134.181-.047 0-.079-.055-.079-.095l.087-.763c.008-.094 0-.306.142-.306.613 0 1.219.031 2.234.031 1.424 0 2.148-.031 2.3-.031.181 0 .22.047.228.227l.04.63c.007.078.015.173-.087.173-.291 0 .133-.6-.669-.6h-1.12c-.354 0-.314-.031-.314.386v4.012c0 .662.637.4.637.646 0 .023.008.094-.071.094-.189 0-.409-.032-.637-.032a10.411 10.411 0 0 0 -1.078.032c-.071 0-.095-.023-.095-.1 0-.189.622-.11.622-.583z" transform="translate(0 .001)"/><path d="m24.047 10.761c0 .268-.016.268.3.268h.853c.818 0 .606-.63.795-.63.063 0 .087.087.087.149 0 .276-.016.543-.016.8 0 .205.016.409.016.621 0 .071-.032.1-.087.1-.244 0 .023-.692-.637-.692h-1.17c-.165 0-.141.134-.141.251v1.448c0 .464-.063.653.6.653 1.817 0 2.085-.811 2.187-.811.055 0 .063.079.063.095a1.245 1.245 0 0 1 -.394.763c-.251.283-.424.268-.77.268-.6 0-1.2-.048-1.794-.032-.315.008-.645.032-.96.032-.071 0-.118-.016-.118-.079.016-.095.095-.079.346-.205.205-.094.22-.314.22-.684v-3.589c0-.354 0-.732-.424-.795-.063-.016-.236-.031-.236-.126 0-.063.047-.094.275-.094 1.487 0 1.9.031 2.226.031.158 0 .881-.031 1.125-.031.063 0 .079.079.079.173 0 .873-.11.936-.158.936-.188 0-.062-.377-.188-.559-.2-.267-1.023-.22-1.338-.22-.755 0-.739-.031-.739.5z" transform="translate(0 .001)"/><path d="m31.479 13.184c.567.864.952.574.952.763 0 .094-.44.094-.511.094-.574 0-.881-.4-1.18-.85l-.873-1.377c-.283-.44-.165-.416-1.046-.416-.252 0-.205.141-.205.22v1.66c0 .677.818.432.818.7 0 .078-.071.062-.134.062s-.251-.032-.9-.032c-.3 0-.6.032-.9.032a.081.081 0 0 1 -.079-.086c0-.2.574-.086.574-.685v-4c0-.755-.676-.433-.676-.7 0-.048.063-.1.157-.1a4.421 4.421 0 0 0 .5.032c.456 0 .905-.032 1.314-.032.125 0 1.864-.157 1.864 1.361a1.523 1.523 0 0 1 -.991 1.361zm-2.863-2.164c0 .15.488.11.858.11a1.026 1.026 0 0 0 1.093-1.117c0-.959-.732-1.282-1.5-1.282-.283 0-.448-.016-.448.291z" transform="translate(0 .001)"/><path d="m37.931 8.4a3.991 3.991 0 0 1 2.116.606c.063 0 .11-.079.189-.079s.087.126.11.637c.016.417.087.677-.047.677-.094 0-.149-.205-.181-.26a2.226 2.226 0 0 0 -2.061-1.353 2.183 2.183 0 0 0 -2.274 2.486 2.472 2.472 0 0 0 2.3 2.738 2.324 2.324 0 0 0 2.122-1.152.132.132 0 0 1 .11-.1.08.08 0 0 1 .07.087l-.18.787c-.009.031-.567.621-2.337.621a2.635 2.635 0 0 1 -2.768-2.736 2.84 2.84 0 0 1 2.831-2.959" transform="translate(0 .001)"/><path d="m42.257 10.761c0 .268-.016.268.3.268h.849c.818 0 .606-.63.8-.63.063 0 .087.087.087.149 0 .276-.016.543-.016.8 0 .205.016.409.016.621 0 .071-.032.1-.087.1-.244 0 .023-.692-.637-.692h-1.169c-.165 0-.141.134-.141.251v1.448c0 .464-.063.653.6.653 1.817 0 2.085-.811 2.187-.811.055 0 .063.079.063.095a1.245 1.245 0 0 1 -.394.763c-.251.283-.424.268-.77.268-.6 0-1.2-.048-1.794-.032-.315.008-.645.032-.96.032-.071 0-.118-.016-.118-.079.016-.095.095-.079.346-.205.2-.094.22-.314.22-.684v-3.589c0-.354 0-.732-.424-.795-.063-.016-.236-.031-.236-.126 0-.063.047-.094.275-.094 1.487 0 1.9.031 2.226.031.158 0 .881-.031 1.125-.031.063 0 .079.079.079.173 0 .873-.11.936-.158.936-.188 0-.062-.377-.188-.559-.209-.267-1.027-.222-1.338-.222-.755 0-.739-.031-.739.5z" transform="translate(0 .001)"/><path d="m46.331 10.021c0-1.636-.952-1.18-.952-1.471 0-.047.079-.079.118-.079.126 0 .244.032.37.032s.244-.032.362-.032c.086 0 .157.126.2.181l3.753 4.177c.047.055.079.087.094.087s.024-.023.024-.087v-3.288c0-1.03-.873-.731-.873-.991a.077.077 0 0 1 .087-.079c.235 0 .463.032.715.032.268 0 .606-.032.8-.032a.069.069 0 0 1 .078.071c0 .205-.464.063-.464.637v4.555c0 .228-.008.338-.071.338s-.133-.039-.3-.219l-3.384-3.808c-.015-.016-.11-.15-.165-.15-.031 0-.055.024-.055.181v3.217c0 .708.693.434.693.646 0 .039-.008.1-.087.1-.188 0-.409-.031-.8-.031-.275 0-.684.031-.739.031-.094 0-.1-.047-.1-.086 0-.276.693.07.693-1.031z" transform="translate(0 .001)"/><path d="m54.078 9.266c0-.055.031-.354-.079-.362h-1.282c-.488 0-.5.118-.645.551-.024.079-.032.181-.134.181-.047 0-.079-.055-.079-.095l.087-.763c.008-.094 0-.306.142-.306.613 0 1.219.031 2.234.031 1.424 0 2.148-.031 2.3-.031.18 0 .22.047.228.227l.04.63c.007.078.015.173-.088.173-.29 0 .134-.6-.668-.6h-1.12c-.354 0-.314-.031-.314.386v4.012c0 .662.636.4.636.646 0 .023.009.094-.07.094-.189 0-.409-.032-.637-.032a10.411 10.411 0 0 0 -1.078.032c-.071 0-.095-.023-.095-.1 0-.189.622-.11.622-.583z" transform="translate(0 .001)"/><path d="m58.7 10.761c0 .268-.016.268.3.268h.849c.818 0 .606-.63.8-.63.063 0 .087.087.087.149 0 .276-.016.543-.016.8 0 .205.016.409.016.621 0 .071-.032.1-.087.1-.244 0 .023-.692-.637-.692h-1.168c-.165 0-.141.134-.141.251v1.448c0 .464-.063.653.6.653 1.817 0 2.085-.811 2.187-.811.055 0 .064.079.064.095a1.246 1.246 0 0 1 -.4.763c-.251.283-.424.268-.77.268-.6 0-1.2-.048-1.794-.032-.315.008-.645.032-.96.032-.071 0-.118-.016-.118-.079.016-.095.095-.079.346-.205.205-.094.22-.314.22-.684v-3.589c0-.354 0-.732-.424-.795-.063-.016-.236-.031-.236-.126 0-.063.047-.094.275-.094 1.487 0 1.9.031 2.226.031.158 0 .881-.031 1.126-.031.063 0 .078.079.078.173 0 .873-.11.936-.158.936-.188 0-.062-.377-.188-.559-.2-.267-1.023-.22-1.338-.22-.755 0-.739-.031-.739.5z" transform="translate(0 .001)"/><path d="m66.137 13.184c.566.864.952.574.952.763 0 .094-.441.094-.512.094-.574 0-.88-.4-1.179-.85l-.874-1.377c-.282-.44-.165-.416-1.046-.416-.252 0-.2.141-.2.22v1.66c0 .677.819.432.819.7 0 .078-.071.062-.134.062s-.252-.032-.905-.032c-.3 0-.6.032-.9.032a.081.081 0 0 1 -.08-.086c0-.2.575-.086.575-.685v-4c0-.755-.677-.433-.677-.7 0-.048.063-.1.158-.1a4.375 4.375 0 0 0 .5.032c.455 0 .9-.032 1.313-.032.126 0 1.864-.157 1.864 1.361a1.522 1.522 0 0 1 -.991 1.361zm-2.864-2.164c0 .15.488.11.858.11a1.026 1.026 0 0 0 1.094-1.117c0-.959-.732-1.282-1.5-1.282-.284 0-.449-.016-.449.291z" transform="translate(0 .001)"/></g></g></svg>